<svg width="30" height="30" viewBox="0 0 144 144" fill="none" xmlns="http://www.w3.org/2000/svg">
<path d="M71.7917 134.979C55.2604 134.979 40.1875 128.594 28.9167 118.167C40.6094 107.318 55.6771 101.391 71.7917 101.391H84.4479C93.7969 101.391 101.396 93.7865 101.396 84.4427C101.396 75.0938 93.7969 67.4896 84.4479 67.4896H59.1354C54.5313 67.4896 50.776 63.7396 50.776 59.1302C50.776 54.5208 54.5313 50.776 59.1354 50.776H71.7917C90.1302 50.776 107.276 44.0156 120.573 31.651C129.573 42.5729 134.99 56.5573 134.99 71.7865C134.99 106.63 106.641 134.979 71.7917 134.979ZM71.7917 8.59375C88.3281 8.59375 103.396 14.9792 114.672 25.4063C102.974 36.2552 87.9063 42.1823 71.7917 42.1823H59.1354C49.7917 42.1823 42.1875 49.7865 42.1875 59.1302C42.1875 68.4792 49.7917 76.0833 59.1354 76.0833H84.4479C89.0573 76.0833 92.8073 79.8333 92.8073 84.4427C92.8073 89.0521 89.0573 92.7969 84.4479 92.7969H71.7917C53.4531 92.7969 36.3073 99.5573 23.0104 111.922C14.0104 101 8.59896 87.0156 8.59896 71.7865C8.59896 36.9427 36.9427 8.59375 71.7917 8.59375ZM124.224 22.8073C124.083 22.6198 123.932 22.4375 123.76 22.2656C123.708 22.224 123.656 22.1927 123.604 22.151C110.531 8.50521 92.1354 0 71.7917 0C32.2083 0 0 32.2031 0 71.7865C0 90.6927 7.35417 107.911 19.3385 120.745C19.4844 120.943 19.6406 121.13 19.8229 121.307C19.875 121.354 19.9323 121.391 19.9844 121.432C33.0625 135.068 51.4531 143.573 71.7917 143.573C111.375 143.573 143.583 111.37 143.583 71.7865C143.583 52.8698 136.224 35.6458 124.224 22.8073Z" fill="black"/>
</svg>
